<?xml version="1.0" encoding="UTF-8" standalone="no"?>
<!DOCTYPE svg PUBLIC "-//W3C//DTD SVG 1.1//EN" "http://www.w3.org/Graphics/SVG/1.1/DTD/svg11.dtd">
<svg width="100%" height="100%" viewBox="0 0 988 988" version="1.1" xmlns="http://www.w3.org/2000/svg" xmlns:xlink="http://www.w3.org/1999/xlink" xml:space="preserve" xmlns:serif="http://www.serif.com/" style="fill-rule:evenodd;clip-rule:evenodd;stroke-linejoin:round;stroke-miterlimit:2;">
    <g transform="matrix(1,0,0,1,-622.177,-2918)">
        <g transform="matrix(1,0,0,1,-232.823,1022)">
            <path d="M1619.32,2803.45C1548.9,2849.61 1466,2878.27 1376.83,2883.23L1045.68,2000.17C1129.42,1934.9 1234.7,1896 1349,1896C1435.3,1896 1516.45,1918.18 1587.08,1957.13C1541.26,1977.2 1501.28,2001.53 1467.14,2030.14C1416.75,2072.36 1378.84,2122.74 1353.42,2181.3C1328,2239.86 1315.29,2304.09 1315.29,2374C1315.29,2443.91 1328,2508.14 1353.42,2566.7C1378.84,2625.26 1416.75,2675.65 1467.14,2717.86C1509.06,2752.99 1559.79,2781.52 1619.32,2803.45ZM1745.87,2095.94C1806.89,2178.12 1843,2279.88 1843,2390C1843,2488 1814.4,2579.37 1765.1,2656.22C1756.76,2654.05 1748.68,2651.67 1740.86,2649.09C1691.38,2632.75 1651.21,2610.96 1620.34,2583.72C1589.47,2556.49 1567.23,2524.71 1553.61,2488.39C1539.99,2452.08 1533.18,2413.95 1533.18,2374C1533.18,2334.05 1539.99,2295.92 1553.61,2259.61C1567.23,2223.29 1589.47,2191.29 1620.34,2163.6C1651.21,2135.91 1691.38,2113.89 1740.86,2097.55C1742.52,2097 1744.19,2096.47 1745.87,2095.94ZM1135.73,2835.65C1034.68,2787.16 952.624,2705.3 903.886,2604.38L1048.39,2604.38L1135.73,2835.65ZM855.446,2411.16C855.15,2404.15 855,2397.09 855,2390C855,2320.88 869.229,2255.05 894.914,2195.29L975.558,2411.16L855.446,2411.16Z" style="fill:rgb(8,6,5);"/>
        </g>
    </g>
</svg>
